Coordinates
version=1
nRows=7
nColumns=46
inDegrees=yes

Units are S.I. units (second, meters, Newtons, ...)
Angles are in degrees.

endheader
time	pelvis_tilt	pelvis_list	pelvis_rotation	pelvis_tx	pelvis_ty	pelvis_tz	bb_angle	bb_tx	bb_ty	bb_tz	hip_flexion_r	hip_adduction_r	hip_rotation_r	knee_angle_r	knee_angle_r_beta	ankle_angle_r	subtalar_angle_r	mtp_angle_r	crank_angle_r	hip_flexion_l	hip_adduction_l	hip_rotation_l	knee_angle_l	knee_angle_l_beta	ankle_angle_l	subtalar_angle_l	mtp_angle_l	crank_angle_l	lumbar_extension	lumbar_bending	lumbar_rotation	arm_flex_r	arm_add_r	arm_rot_r	elbow_flex_r	pro_sup_r	wrist_flex_r	wrist_dev_r	arm_flex_l	arm_add_l	arm_rot_l	elbow_flex_l	pro_sup_l	wrist_flex_l	wrist_dev_l
      5.00500000	    -23.86162905	     12.54564468	      8.30631009	      0.43187983	      1.21135785	     -0.20416529	      0.00000000	      0.50000000	      0.00000000	      0.25000000	     28.04018075	    -15.80180595	     -9.83418970	     22.47949687	      0.39234123	     -8.21918867	     -1.98948709	      0.00000000	      0.00000000	     67.18037320	      3.03924649	     -2.51583889	    101.94087119	      1.77920384	     -6.22445292	      2.78258177	      0.00000000	      0.00000000	    -58.65827412	     -2.91840361	     -4.99853687	     54.42065619	    -17.02100010	     19.63485775	     66.55170305	     55.05137168	      0.00000000	      0.00000000	     77.47655628	    -17.68349922	     57.20243977	     50.74427409	     52.67469315	      0.00000000	      0.00000000
      5.01000000	    -23.68833445	     12.56491611	      9.12742716	      0.43258135	      1.21247386	     -0.20482299	      0.00000000	      0.50000000	      0.00000000	      0.25000000	     26.33277513	    -16.08623672	    -11.32051394	     21.26171807	      0.37108698	     -9.15634861	     -1.45769989	      0.00000000	      0.00000000	     68.15218250	      3.43373348	     -2.47726436	    102.32486508	      1.78590580	     -6.62156386	      3.03285999	      0.00000000	      0.00000000	    -58.60760005	     -2.68655792	     -6.31590313	     55.49717828	    -15.57080457	     20.36567297	     63.35768467	     54.74763633	      0.00000000	      0.00000000	     76.27966071	    -17.96507202	     55.63275691	     51.33203538	     52.44732160	      0.00000000	      0.00000000
      5.01500000	    -23.46284818	     12.45634176	      9.93143063	      0.43306242	      1.21385528	     -0.20553731	      0.00000000	      0.50000000	      0.00000000	      0.25000000	     24.67379593	    -16.20816480	    -12.80104323	     20.18335560	      0.35226601	    -10.15829993	     -0.94865547	      0.00000000	      0.00000000	     69.06124998	      3.83489172	     -2.32632907	    102.56035598	      1.79001589	     -7.22178395	      3.11418955	      0.00000000	      0.00000000	    -58.79363987	     -2.34044297	     -7.14413104	     56.03391710	    -15.01352598	     20.81192258	     61.89465813	     54.75725515	      0.00000000	      0.00000000	     75.36451810	    -18.37342093	     53.45974062	     52.43827578	     52.21746588	      0.00000000	      0.00000000
      5.02000000	    -23.22196944	     12.25184893	     10.77364483	      0.43351839	      1.21531883	     -0.20631641	      0.00000000	      0.50000000	      0.00000000	      0.25000000	     23.09994116	    -16.22091584	    -14.39197349	     19.30781336	      0.33698491	    -11.00238311	     -0.56209134	      0.00000000	      0.00000000	     69.91800445	      4.24493374	     -2.07561132	    102.68569524	      1.79220348	     -7.72372161	      3.31064051	      0.00000000	      0.00000000	    -59.06583993	     -1.97123025	     -7.58271289	     56.11356202	    -14.99171746	     20.77702751	     61.38275650	     54.70782028	      0.00000000	      0.00000000	     75.17317775	    -18.16701591	     53.06735672	     52.66490602	     52.17420022	      0.00000000	      0.00000000
      5.02500000	    -23.24051922	     12.15595525	     11.55773638	      0.43349107	      1.21655969	     -0.20720476	      0.00000000	      0.50000000	      0.00000000	      0.25000000	     22.11115649	    -16.38431036	    -15.72430949	     18.88134410	      0.32954162	    -12.17088557	     -0.25662401	      0.00000000	      0.00000000	     70.96547124	      4.74362103	     -1.97912685	    102.60448666	      1.79078612	     -8.30163409	      3.51971396	      0.00000000	      0.00000000	    -59.13960193	     -1.80816937	     -8.06873716	     56.02258225	    -15.06617829	     20.73888261	     60.99174441	     54.65650610	      0.00000000	      0.00000000	     75.03806697	    -17.90962484	     52.75659929	     52.85794768	     52.15137691	      0.00000000	      0.00000000
      5.03000000	    -22.83734054	     11.88808406	     12.37722258	      0.43375424	      1.21870557	     -0.20808589	      0.00000000	      0.50000000	      0.00000000	      0.25000000	     20.66675905	    -16.31730393	    -17.42845282	     18.51432827	      0.32313599	    -13.01477511	      0.32998756	      0.00000000	      0.00000000	     71.48919148	      5.24881498	     -1.65792421	    102.42252453	      1.78761028	     -8.76053740	      3.52264805	      0.00000000	      0.00000000	    -59.52028291	     -1.11193820	     -9.08346656	     57.24983247	    -13.71747734	     21.21780699	     58.51953983	     54.45966129	      0.00000000	      0.00000000	     73.32625510	    -18.11048766	     48.96614008	     54.22920833	     51.76662215	      0.00000000	      0.00000000
      5.03500000	    -22.80337018	     11.73142947	     13.00437398	      0.43358846	      1.22033915	     -0.20842032	      0.00000000	      0.50000000	      0.00000000	      0.25000000	     20.02824480	    -16.36275054	    -18.45469021	     18.67456593	      0.32593266	    -14.08493716	      0.27297645	      0.00000000	      0.00000000	     72.27191110	      5.54153257	     -1.63192791	    102.04070151	      1.78094621	     -9.24887321	      3.65168534	      0.00000000	      0.00000000	    -59.77119734	     -1.00208933	     -9.45039055	     57.27957444	    -13.80989173	     21.20894661	     58.27778905	     54.43210623	      0.00000000	      0.00000000	     73.41526217	    -17.93354103	     48.78396043	     54.50816321	     51.77470245	      0.00000000	      0.00000000
